<?xml version="1.0" encoding="UTF-8"?><svg id="Livello_2" xmlns="http://www.w3.org/2000/svg" xmlns:xlink="http://www.w3.org/1999/xlink" viewBox="0 0 712.1 127.45"><defs><style>.cls-1{fill:#1a1a1a;}.cls-2{fill:url(#Sfumatura_senza_nome_8);}.cls-3{fill:url(#Sfumatura_senza_nome_8-2);}.cls-4{fill:url(#Sfumatura_senza_nome_8-3);}</style><linearGradient id="Sfumatura_senza_nome_8" x1="121.4" y1="-8.24" x2="13.4" y2="126.51" gradientUnits="userSpaceOnUse"><stop offset="0" stop-color="#fab877"/><stop offset="1" stop-color="#ee7324"/></linearGradient><linearGradient id="Sfumatura_senza_nome_8-2" x1="117.83" y1="-11.1" x2="9.83" y2="123.65" xlink:href="#Sfumatura_senza_nome_8"/><linearGradient id="Sfumatura_senza_nome_8-3" x1="124.77" y1="-5.54" x2="16.77" y2="129.21" xlink:href="#Sfumatura_senza_nome_8"/></defs><g id="Livello_1-2"><path class="cls-2" d="m88.01,0h-48.58C17.65,0,0,17.65,0,39.44v48.58c0,21.79,17.65,39.44,39.44,39.44h48.58c21.79,0,39.44-17.65,39.44-39.44v-48.58C127.45,17.65,109.8,0,88.01,0Zm27.22,88.01c0,15-12.22,27.22-27.22,27.22h-48.58c-15,0-27.22-12.22-27.22-27.22v-48.58c0-15,12.22-27.22,27.22-27.22h48.58c15,0,27.22,12.22,27.22,27.22v48.58Z"/><polygon class="cls-3" points="91.9 67.3 41.88 96.95 41.88 37.63 91.9 67.3"/><circle class="cls-4" cx="93.23" cy="33.81" r="8.38"/><path class="cls-1" d="m173.61,70.26l-17.71-25.25h15.07l9.02,13.27,8.95-13.27h15.07l-17.78,25.25v23.31h-12.62v-23.31Z"/><path class="cls-1" d="m230.03,55.71v37.87h-12.62v-37.87h-10.37v-10.69h33.36v10.69h-10.37Z"/><path class="cls-1" d="m272.73,57.44c-1.37-1.12-2.75-1.94-4.12-2.48-1.37-.54-2.71-.8-3.99-.8-1.63,0-2.96.39-3.99,1.16-1.03.77-1.55,1.78-1.55,3.03,0,.86.26,1.57.77,2.12.52.56,1.19,1.04,2.03,1.45.84.41,1.78.76,2.83,1.06,1.05.3,2.09.62,3.12.97,4.12,1.38,7.14,3.21,9.05,5.51,1.91,2.3,2.87,5.29,2.87,8.98,0,2.49-.42,4.75-1.26,6.76-.84,2.02-2.06,3.75-3.67,5.18-1.61,1.44-3.59,2.56-5.93,3.35-2.34.79-4.99,1.19-7.95,1.19-6.14,0-11.83-1.82-17.07-5.47l5.41-10.18c1.89,1.67,3.76,2.92,5.6,3.74,1.85.82,3.67,1.22,5.47,1.22,2.06,0,3.6-.47,4.6-1.42,1.01-.94,1.51-2.02,1.51-3.22,0-.73-.13-1.36-.39-1.9-.26-.54-.69-1.03-1.29-1.48-.6-.45-1.38-.87-2.35-1.26-.97-.39-2.14-.82-3.51-1.29-1.63-.52-3.23-1.08-4.8-1.71-1.57-.62-2.96-1.45-4.19-2.48-1.22-1.03-2.21-2.33-2.96-3.9-.75-1.57-1.13-3.55-1.13-5.96s.4-4.58,1.19-6.54c.79-1.95,1.91-3.63,3.35-5.02,1.44-1.39,3.2-2.48,5.28-3.25,2.08-.77,4.41-1.16,6.99-1.16,2.4,0,4.92.33,7.54,1,2.62.67,5.13,1.64,7.54,2.93l-5.02,9.85Z"/><path class="cls-1" d="m306.41,55.71v37.87h-12.62v-37.87h-10.37v-10.69h33.36v10.69h-10.37Z"/><path class="cls-1" d="m319.75,69.3c0-3.61.67-6.97,2-10.08,1.33-3.11,3.18-5.83,5.54-8.15,2.36-2.32,5.18-4.13,8.47-5.44,3.28-1.31,6.9-1.96,10.85-1.96s7.51.65,10.82,1.96c3.31,1.31,6.15,3.12,8.53,5.44s4.24,5.04,5.57,8.15c1.33,3.11,2,6.47,2,10.08s-.67,6.97-2,10.08c-1.33,3.11-3.19,5.83-5.57,8.15-2.38,2.32-5.23,4.13-8.53,5.44-3.31,1.31-6.91,1.96-10.82,1.96s-7.57-.66-10.85-1.96c-3.29-1.31-6.11-3.12-8.47-5.44-2.36-2.32-4.21-5.03-5.54-8.15-1.33-3.11-2-6.47-2-10.08Zm13.2,0c0,1.93.36,3.71,1.09,5.35.73,1.63,1.72,3.05,2.96,4.25,1.24,1.2,2.69,2.14,4.35,2.8,1.65.67,3.4,1,5.25,1s3.6-.33,5.25-1c1.65-.67,3.11-1.6,4.38-2.8,1.27-1.2,2.26-2.62,2.99-4.25.73-1.63,1.1-3.41,1.1-5.35s-.37-3.71-1.1-5.35c-.73-1.63-1.73-3.05-2.99-4.25-1.27-1.2-2.73-2.14-4.38-2.8-1.65-.67-3.4-1-5.25-1s-3.6.33-5.25,1c-1.65.67-3.1,1.6-4.35,2.8-1.25,1.2-2.23,2.62-2.96,4.25-.73,1.63-1.09,3.41-1.09,5.35Z"/><path class="cls-1" d="m421.89,93.58h-15.71l-12.04-18.68v18.68h-12.62v-48.56h19.64c2.71,0,5.07.4,7.09,1.19,2.02.79,3.68,1.88,4.99,3.25,1.31,1.38,2.3,2.96,2.96,4.77.67,1.8,1,3.74,1,5.8,0,3.69-.89,6.69-2.67,8.99-1.78,2.3-4.41,3.85-7.89,4.67l15.27,19.9Zm-27.76-26.86h2.38c2.49,0,4.4-.51,5.73-1.55,1.33-1.03,2-2.51,2-4.44s-.67-3.41-2-4.44c-1.33-1.03-3.24-1.55-5.73-1.55h-2.38v11.98Z"/><path class="cls-1" d="m439.8,45.02v48.56h-12.62v-48.56h12.62Z"/><path class="cls-1" d="m477.6,55.71h-15.01v8.11h14.17v10.69h-14.17v8.37h15.01v10.69h-27.63v-48.56h27.63v10.69Z"/><path class="cls-1" d="m513.35,57.44c-1.38-1.12-2.75-1.94-4.12-2.48-1.37-.54-2.71-.8-3.99-.8-1.63,0-2.96.39-3.99,1.16-1.03.77-1.55,1.78-1.55,3.03,0,.86.26,1.57.77,2.12.51.56,1.19,1.04,2.03,1.45.84.41,1.78.76,2.83,1.06,1.05.3,2.09.62,3.12.97,4.12,1.38,7.14,3.21,9.05,5.51,1.91,2.3,2.87,5.29,2.87,8.98,0,2.49-.42,4.75-1.26,6.76-.84,2.02-2.06,3.75-3.67,5.18-1.61,1.44-3.59,2.56-5.93,3.35-2.34.79-4.99,1.19-7.95,1.19-6.14,0-11.83-1.82-17.07-5.47l5.41-10.18c1.89,1.67,3.76,2.92,5.6,3.74,1.84.82,3.67,1.22,5.47,1.22,2.06,0,3.6-.47,4.61-1.42,1.01-.94,1.51-2.02,1.51-3.22,0-.73-.13-1.36-.39-1.9-.26-.54-.69-1.03-1.29-1.48-.6-.45-1.38-.87-2.35-1.26s-2.14-.82-3.51-1.29c-1.63-.52-3.23-1.08-4.8-1.71-1.57-.62-2.96-1.45-4.19-2.48s-2.21-2.33-2.96-3.9c-.75-1.57-1.13-3.55-1.13-5.96s.4-4.58,1.19-6.54c.79-1.95,1.91-3.63,3.35-5.02,1.44-1.39,3.2-2.48,5.28-3.25,2.08-.77,4.41-1.16,6.99-1.16,2.4,0,4.92.33,7.54,1,2.62.67,5.13,1.64,7.54,2.93l-5.02,9.85Z"/><path class="cls-1" d="m526.62,87.39c0-1.03.19-2.01.58-2.93.39-.92.92-1.73,1.61-2.42s1.49-1.22,2.42-1.61c.92-.39,1.9-.58,2.93-.58s2.01.19,2.93.58c.92.39,1.73.92,2.42,1.61.69.69,1.22,1.49,1.61,2.42.39.92.58,1.9.58,2.93s-.19,2.01-.58,2.93c-.39.92-.92,1.73-1.61,2.42-.69.69-1.49,1.22-2.42,1.61-.92.39-1.9.58-2.93.58s-2.01-.19-2.93-.58c-.92-.39-1.73-.92-2.42-1.61-.69-.69-1.22-1.49-1.61-2.42-.39-.92-.58-1.9-.58-2.93Z"/><path class="cls-1" d="m585.16,61.24c-2.92-3.56-6.53-5.35-10.82-5.35-1.89,0-3.64.34-5.25,1.03s-3,1.62-4.15,2.8c-1.16,1.18-2.07,2.59-2.74,4.22-.67,1.63-1,3.39-1,5.28s.33,3.71,1,5.35c.67,1.63,1.59,3.05,2.77,4.25,1.18,1.2,2.57,2.15,4.15,2.83,1.59.69,3.31,1.03,5.15,1.03,4.04,0,7.66-1.72,10.88-5.15v14.94l-1.29.45c-1.93.69-3.74,1.19-5.41,1.51-1.67.32-3.33.48-4.96.48-3.35,0-6.56-.63-9.63-1.9-3.07-1.27-5.78-3.05-8.12-5.35-2.34-2.3-4.22-5.02-5.64-8.18-1.42-3.16-2.12-6.6-2.12-10.34s.7-7.16,2.09-10.27c1.4-3.11,3.26-5.8,5.6-8.05,2.34-2.25,5.06-4.01,8.15-5.28,3.09-1.27,6.33-1.9,9.73-1.9,1.93,0,3.83.2,5.7.61,1.87.41,3.83,1.04,5.89,1.9v15.07Z"/><path class="cls-1" d="m591.66,69.3c0-3.61.67-6.97,2-10.08,1.33-3.11,3.18-5.83,5.54-8.15s5.18-4.13,8.47-5.44c3.28-1.31,6.9-1.96,10.85-1.96s7.51.65,10.82,1.96c3.31,1.31,6.15,3.12,8.53,5.44s4.24,5.04,5.57,8.15c1.33,3.11,2,6.47,2,10.08s-.67,6.97-2,10.08c-1.33,3.11-3.19,5.83-5.57,8.15-2.38,2.32-5.23,4.13-8.53,5.44-3.31,1.31-6.91,1.96-10.82,1.96s-7.57-.66-10.85-1.96c-3.29-1.31-6.11-3.12-8.47-5.44-2.36-2.32-4.21-5.03-5.54-8.15s-2-6.47-2-10.08Zm13.2,0c0,1.93.36,3.71,1.09,5.35.73,1.63,1.72,3.05,2.96,4.25,1.25,1.2,2.69,2.14,4.35,2.8,1.65.67,3.4,1,5.25,1s3.6-.33,5.25-1c1.65-.67,3.11-1.6,4.38-2.8,1.27-1.2,2.26-2.62,3-4.25.73-1.63,1.09-3.41,1.09-5.35s-.37-3.71-1.09-5.35c-.73-1.63-1.73-3.05-3-4.25s-2.73-2.14-4.38-2.8c-1.65-.67-3.4-1-5.25-1s-3.6.33-5.25,1c-1.65.67-3.1,1.6-4.35,2.8-1.25,1.2-2.23,2.62-2.96,4.25-.73,1.63-1.09,3.41-1.09,5.35Z"/><path class="cls-1" d="m651.24,93.58l8.24-48.56h12.49l9.73,25.89,9.66-25.89h12.49l8.24,48.56h-12.56l-4.19-27.95-11.46,27.95h-5.02l-10.88-27.95-4.19,27.95h-12.56Z"/></g></svg>