<?xml version="1.0" encoding="UTF-8"?><svg id="Livello_2" xmlns="http://www.w3.org/2000/svg" xmlns:xlink="http://www.w3.org/1999/xlink" viewBox="0 0 127.45 127.45"><defs><style>.cls-1{fill:url(#Sfumatura_senza_nome_8);}.cls-2{fill:url(#Sfumatura_senza_nome_8-2);}.cls-3{fill:url(#Sfumatura_senza_nome_8-3);}</style><linearGradient id="Sfumatura_senza_nome_8" x1="121.4" y1="-8.24" x2="13.4" y2="126.51" gradientUnits="userSpaceOnUse"><stop offset="0" stop-color="#fab877"/><stop offset="1" stop-color="#ee7324"/></linearGradient><linearGradient id="Sfumatura_senza_nome_8-2" x1="117.83" y1="-11.1" x2="9.83" y2="123.65" xlink:href="#Sfumatura_senza_nome_8"/><linearGradient id="Sfumatura_senza_nome_8-3" x1="124.77" y1="-5.54" x2="16.77" y2="129.21" xlink:href="#Sfumatura_senza_nome_8"/></defs><g id="Livello_1-2"><path class="cls-1" d="m88.01,0h-48.58C17.65,0,0,17.65,0,39.44v48.58c0,21.79,17.65,39.44,39.44,39.44h48.58c21.79,0,39.44-17.65,39.44-39.44v-48.58C127.45,17.65,109.8,0,88.01,0Zm27.22,88.01c0,15-12.22,27.22-27.22,27.22h-48.58c-15,0-27.22-12.22-27.22-27.22v-48.58c0-15,12.22-27.22,27.22-27.22h48.58c15,0,27.22,12.22,27.22,27.22v48.58Z"/><polygon class="cls-2" points="91.9 67.3 41.88 96.95 41.88 37.63 91.9 67.3"/><circle class="cls-3" cx="93.23" cy="33.81" r="8.38"/></g></svg>